<?xml version="1.0" standalone="no"?>
<!DOCTYPE svg PUBLIC "-//W3C//DTD SVG 20010904//EN"
 "http://www.w3.org/TR/2001/REC-SVG-20010904/DTD/svg10.dtd">
<svg version="1.0" xmlns="http://www.w3.org/2000/svg"
 width="1000.000000pt" height="1000.000000pt" viewBox="0 0 800.000000 500.000000"
 preserveAspectRatio="xMidYMid meet">

<g transform="translate(0.000000,500.000000) scale(0.100000,-0.100000)"
fill="#000000" stroke="none">
<path d="M3541 3334 c-48 -43 -120 -148 -157 -228 -23 -50 -29 -56 -55 -56
-17 0 -44 -7 -60 -16 -24 -12 -30 -21 -27 -41 4 -35 32 -52 58 -35 25 15 25
16 -1 -52 -17 -44 -25 -54 -35 -45 -20 16 -50 2 -64 -32 -45 -108 -33 32 21
254 22 87 39 174 39 193 0 35 -28 74 -54 74 -23 0 -67 -59 -107 -145 -21 -44
-38 -75 -38 -68 -1 18 -31 43 -52 43 -10 0 -28 -9 -39 -20 -19 -19 -19 -19
-14 13 3 18 7 37 9 43 5 18 -24 54 -44 54 -10 0 -24 -6 -30 -14 -18 -21 -68
-276 -76 -383 -7 -89 -7 -92 18 -117 14 -14 31 -26 37 -26 24 0 48 42 60 104
l14 66 21 -20 c41 -38 73 -24 106 49 16 36 16 36 11 -56 -5 -103 0 -135 28
-163 24 -24 82 -27 100 -5 7 9 22 12 39 9 43 -9 75 28 126 141 40 88 48 100
67 97 30 -5 28 -1 18 -47 -5 -22 -14 -79 -20 -127 -9 -72 -8 -94 4 -123 25
-60 98 -71 132 -20 22 34 15 59 -19 63 -32 4 -32 3 -12 118 22 124 22 124 57
124 27 0 30 -3 24 -22 -3 -13 -9 -46 -12 -74 -7 -54 9 -84 45 -84 27 0 34 11
104 176 60 139 116 255 102 210 -94 -304 -106 -415 -50 -452 42 -27 87 4 65
46 -14 26 10 155 60 318 59 196 53 272 -22 272 -27 0 -49 -20 -84 -78 -20 -31
-23 -33 -24 -15 0 25 -31 46 -53 37 -17 -6 -43 -63 -76 -166 -23 -70 -31 -81
-70 -93 -22 -7 -23 -5 -17 16 75 271 76 313 9 333 -17 5 -32 -2 -62 -30z m-27
-232 c-20 -66 -29 -82 -44 -82 -11 0 -20 2 -20 4 0 20 79 170 86 163 2 -2 -8
-40 -22 -85z"/>
<path d="M380 2690 l0 -661 23 3 22 3 0 655 0 655 -22 3 -23 3 0 -661z"/>
<path d="M1425 3256 c-24 -7 -40 -18 -40 -27 0 -8 -36 -103 -79 -211 -70 -173
-83 -199 -108 -209 -15 -6 -28 -18 -28 -25 0 -11 22 -14 100 -14 93 0 100 1
100 20 0 15 -7 20 -24 20 -33 0 -40 14 -26 55 l12 35 89 0 89 0 15 -36 c8 -20
15 -38 15 -39 0 -1 -13 -8 -30 -15 -16 -7 -30 -19 -30 -26 0 -11 24 -14 115
-14 108 0 115 1 115 20 0 14 -7 20 -24 20 -25 0 -26 2 -168 353 -23 59 -45
107 -48 106 -3 0 -23 -6 -45 -13z m33 -218 l30 -78 -64 0 c-35 0 -64 2 -64 5
0 7 49 135 56 146 8 14 8 14 42 -73z"/>
<path d="M2452 3260 c-86 -18 -139 -80 -129 -153 7 -52 45 -90 132 -134 90
-45 105 -59 105 -98 0 -40 -16 -55 -60 -55 -65 0 -78 9 -99 64 -15 41 -24 52
-44 54 -22 3 -27 -1 -32 -30 -4 -19 -5 -52 -3 -73 3 -37 6 -41 48 -57 55 -21
168 -23 213 -4 54 22 87 70 87 124 0 71 -24 102 -121 152 -102 52 -119 66
-119 97 0 58 32 75 98 52 25 -8 34 -19 42 -50 9 -34 14 -39 40 -39 34 0 43 21
38 90 -3 38 -7 45 -30 51 -51 14 -123 17 -166 9z"/>
<path d="M530 3230 c0 -16 7 -20 30 -20 l30 0 0 -194 0 -194 -30 -12 c-16 -7
-30 -19 -30 -26 0 -11 24 -14 115 -14 107 0 115 1 115 19 0 14 -8 21 -27 23
-27 3 -28 6 -31 66 -3 61 9 97 29 90 5 -2 39 -46 77 -98 l68 -95 77 -3 c70 -3
77 -1 77 16 0 13 -9 22 -27 26 -21 4 -49 35 -114 124 l-86 118 67 71 c36 38
80 78 98 87 53 27 38 36 -64 36 -85 0 -95 -2 -92 -17 2 -9 13 -20 25 -23 20
-4 14 -13 -57 -90 l-79 -85 -1 81 c0 81 0 82 30 94 17 7 30 19 30 26 0 11 -24
14 -115 14 -108 0 -115 -1 -115 -20z"/>
<path d="M1880 3230 c0 -15 7 -20 25 -20 l25 0 0 -192 0 -193 -30 -17 c-54
-31 -37 -38 90 -38 112 0 120 1 120 19 0 14 -8 21 -27 23 l-28 3 -3 192 -2
192 30 16 c17 9 28 20 25 25 -4 6 -55 10 -116 10 -102 0 -109 -1 -109 -20z"/>
<path d="M565 2278 c-33 -19 -44 -41 -45 -89 0 -60 28 -89 88 -89 23 0 42 5
42 10 0 6 -18 10 -39 10 -47 0 -71 26 -71 77 0 47 32 77 76 70 35 -6 47 6 18
17 -23 9 -46 7 -69 -6z"/>
<path d="M725 2278 c-33 -19 -44 -41 -45 -84 0 -57 30 -94 76 -94 49 0 71 14
84 55 14 41 6 87 -19 109 -24 22 -72 29 -96 14z m73 -24 c17 -12 22 -25 22
-63 0 -56 -12 -71 -57 -71 -44 0 -68 36 -60 88 10 58 50 78 95 46z"/>
<path d="M1102 2279 c-19 -7 -23 -15 -20 -41 2 -27 10 -36 40 -50 42 -20 50
-30 42 -52 -4 -11 -19 -16 -51 -16 -27 0 -42 -4 -38 -10 10 -16 82 -12 99 6
32 31 14 66 -46 92 -52 22 -23 74 32 57 11 -3 20 -2 20 3 0 5 -10 12 -22 16
-28 7 -27 7 -56 -5z"/>
<path d="M1764 2280 c-54 -21 -72 -105 -33 -154 17 -21 29 -26 65 -26 24 0 44
5 44 10 0 6 -18 10 -39 10 -30 0 -44 6 -55 22 -38 54 5 136 64 124 35 -6 50 9
17 18 -28 7 -37 7 -63 -4z"/>
<path d="M2990 2272 c-34 -28 -21 -64 30 -87 31 -14 40 -23 38 -39 -2 -17 -11
-22 -45 -24 -56 -4 -56 -22 0 -22 50 0 67 13 67 52 0 22 -8 32 -39 48 -48 24
-57 36 -40 56 9 11 22 14 46 9 37 -7 46 9 11 19 -35 9 -44 7 -68 -12z"/>
<path d="M890 2190 c0 -53 4 -90 10 -90 6 0 10 32 10 76 l0 77 50 -77 c27 -42
54 -76 60 -76 6 0 10 35 10 90 0 58 -4 90 -11 90 -7 0 -9 -24 -7 -70 2 -39 2
-70 1 -70 -2 0 -24 32 -49 70 -64 95 -74 93 -74 -20z"/>
<path d="M1228 2273 l32 -4 0 -85 c0 -109 18 -110 22 -2 l3 83 30 6 c18 4 0 6
-45 6 -41 0 -60 -2 -42 -4z"/>
<path d="M1370 2190 c0 -53 4 -90 10 -90 6 0 10 18 10 40 0 33 3 40 19 40 13
0 28 -15 42 -40 13 -22 29 -40 36 -40 15 0 12 7 -18 50 -16 24 -16 26 2 49 37
46 13 81 -57 81 l-44 0 0 -90z m68 74 c18 -5 22 -13 20 -33 -2 -21 -9 -27 -35
-29 -30 -3 -33 -1 -33 26 0 41 7 47 48 36z"/>
<path d="M1530 2207 c0 -84 15 -107 66 -107 55 0 68 19 72 104 3 51 1 76 -7
76 -7 0 -11 -21 -11 -54 0 -82 -12 -106 -54 -106 -41 0 -46 10 -46 96 0 36 -4
64 -10 64 -6 0 -10 -31 -10 -73z"/>
<path d="M1885 2271 l30 -6 3 -83 c4 -108 22 -107 22 2 l0 85 33 4 c17 2 -2 4
-43 4 -45 0 -63 -2 -45 -6z"/>
<path d="M2020 2190 l0 -90 55 0 c30 0 55 5 55 10 0 6 -21 10 -46 10 -45 0
-45 0 -42 33 3 29 6 32 41 35 50 4 47 22 -4 22 -38 0 -40 1 -37 28 3 24 8 28
48 33 l45 6 -57 1 -58 2 0 -90z"/>
<path d="M2162 2204 c4 -85 17 -104 73 -104 50 0 65 25 65 108 0 97 -18 92
-22 -5 l-3 -78 -38 -3 c-32 -3 -38 0 -47 23 -6 14 -10 51 -10 81 0 33 -4 54
-11 54 -8 0 -10 -25 -7 -76z"/>
<path d="M2360 2190 c0 -53 4 -90 10 -90 6 0 10 18 10 40 0 29 4 40 15 40 8 0
27 -18 41 -40 15 -22 31 -40 35 -40 13 0 11 5 -12 44 -19 33 -19 37 -5 52 19
18 21 55 4 72 -7 7 -31 12 -55 12 l-43 0 0 -90z m65 70 c40 -15 31 -54 -12
-58 -32 -3 -33 -2 -33 32 0 39 5 41 45 26z"/>
<path d="M2580 2190 l0 -90 44 0 c81 0 127 70 92 138 -18 35 -33 42 -92 42
l-44 0 0 -90z m108 58 c18 -15 15 -88 -5 -110 -9 -10 -30 -18 -50 -18 l-33 0
0 68 c0 38 3 72 7 76 9 8 63 -3 81 -16z"/>
<path d="M2770 2190 l0 -90 50 0 c28 0 50 5 50 10 0 6 -18 10 -40 10 -39 0
-40 1 -40 35 0 34 1 35 41 35 24 0 38 4 34 10 -3 6 -22 10 -41 10 -33 0 -35 2
-32 28 3 23 9 28 43 33 39 6 39 6 -12 8 l-53 1 0 -90z"/>
<path d="M3120 2190 c0 -53 4 -90 10 -90 6 0 10 37 10 90 0 53 -4 90 -10 90
-6 0 -10 -37 -10 -90z"/>
<path d="M3198 2273 l32 -4 0 -85 c0 -109 18 -110 22 -2 l3 83 30 6 c18 4 0 6
-45 6 -41 0 -60 -2 -42 -4z"/>
<path d="M3340 2190 l0 -90 50 0 c28 0 50 5 50 10 0 6 -18 10 -40 10 -39 0
-40 1 -40 35 0 34 1 35 41 35 24 0 38 4 34 10 -3 6 -22 10 -41 10 -31 0 -34 3
-34 29 0 28 3 30 43 34 40 3 40 4 -10 5 l-53 2 0 -90z"/>
<path d="M3530 2274 c0 -29 47 -174 56 -174 6 0 20 29 29 65 10 36 21 68 25
70 4 2 15 -25 25 -60 16 -60 29 -84 41 -72 3 2 15 43 28 91 15 58 19 86 11 86
-6 0 -20 -32 -30 -72 l-19 -72 -20 72 c-14 49 -25 72 -35 70 -7 -2 -23 -34
-35 -73 -22 -69 -22 -70 -29 -36 -15 71 -28 111 -37 111 -6 0 -10 -3 -10 -6z"/>
<path d="M3790 2190 l0 -90 50 0 c28 0 50 5 50 10 0 6 -18 10 -40 10 -39 0
-40 1 -40 35 0 34 1 35 41 35 24 0 38 4 34 10 -3 6 -22 10 -41 10 -31 0 -34 3
-34 29 0 28 3 30 43 34 40 3 40 4 -10 5 l-53 2 0 -90z"/>
<path d="M3930 2190 l0 -90 48 0 c72 0 109 50 62 83 -18 13 -19 16 -5 27 18
15 20 41 3 58 -7 7 -34 12 -60 12 l-48 0 0 -90z m85 66 c28 -21 12 -46 -30
-46 -30 0 -35 3 -35 23 0 13 3 27 7 30 11 11 38 8 58 -7z m3 -75 c8 -4 12 -19
10 -32 -2 -20 -10 -25 -40 -27 -37 -3 -38 -3 -38 32 0 33 3 36 28 36 15 0 33
-4 40 -9z"/>
</g>
</svg>
